name C:\Users\tom_v\MusculoskeletalSpecialization_revisited\Results\Case_13\motion.mot
datacolumns 32
datarows 11
range 0.42547438 0.48220429
endheader 
time	pelvis_tilt	pelvis_list	pelvis_rotation	pelvis_tx	pelvis_ty	pelvis_tz	hip_flexion_r	hip_adduction_r	hip_rotation_r	knee_angle_r	ankle_angle_r	subtalar_angle_r	mtp_angle_r	hip_flexion_l	hip_adduction_l	hip_rotation_l	knee_angle_l	ankle_angle_l	subtalar_angle_l	mtp_angle_l	lumbar_extension	lumbar_bending	lumbar_rotation	arm_flex_r	arm_add_r	arm_rot_r	elbow_flex_r	arm_flex_l	arm_add_l	arm_rot_l	elbow_flex_l	
          0.42547438	        -11.82780381	         -2.01894390	         -0.13476190	          1.40456627	          0.88922368	         -0.00594122	         39.79635338	          2.18785569	         -4.26322868	        -76.16064707	         12.23819162	          3.33852050	          2.79042077	         13.14800438	          4.24358025	          7.28416682	        -39.42765454	         12.14750961	         -4.14151228	         44.30623181	         -1.70364181	          1.92848628	         -2.50796930	         -8.06220061	         -7.88370426	          2.94779552	         73.01399762	         17.16548191	          0.79488671	          9.92388820	          0.58495379	
          0.43114737	        -11.86806097	         -2.27956541	         -0.08489362	          1.42333688	          0.89129424	         -0.00597480	         41.10189831	          2.47283608	         -4.45238102	        -75.34987429	         12.36639204	          2.79836335	          2.58881521	         11.53504814	          3.67029712	          7.02569176	        -38.30266739	         10.68333433	         -3.47075146	         46.03102327	         -1.72480811	          2.36454855	         -2.73058428	         -8.66618930	         -7.97213150	          2.61708855	         74.86134973	         17.25594069	          0.85145489	          9.87347410	          0.27342517	
          0.43682036	        -11.90517046	         -2.52346564	         -0.04052630	          1.44220983	          0.89326724	         -0.00598751	         42.33759962	          2.74266047	         -4.60350895	        -74.39360178	         12.35356974	          2.27910832	          2.40339649	          9.93970054	          3.11312278	          6.76290472	        -37.21592613	          9.23571324	         -2.72061570	         47.41503878	         -1.73534598	          2.78248926	         -2.94634591	         -9.22097829	         -8.04471089	          2.31698864	         76.53964905	         17.28096206	          0.88431666	          9.87959182	          0.09614021	
          0.44249335	        -11.93883212	         -2.74630161	         -0.00078062	          1.46116520	          0.89512013	         -0.00598443	         43.50182133	          2.99451206	         -4.71155297	        -73.29451225	         12.20275003	          1.77738938	          2.23145719	          8.38815554	          2.58073247	          6.50124552	        -36.21827800	          7.81970048	         -1.89519928	         48.40671915	         -1.73732373	          3.17697237	         -3.15353173	         -9.72535787	         -8.10216246	          2.04514764	         78.04944043	         17.25715641	          0.89923860	          9.95043334	          0.01551854	
          0.44816634	        -11.96885317	         -2.94670447	          0.03434343	          1.48018912	          0.89683867	         -0.00597061	         44.59333571	          3.22822298	         -4.77424140	        -72.05886774	         11.91946827	          1.29133675	          2.07113666	          6.89917924	          2.07917833	          6.24683914	        -35.33924476	          6.40756328	         -1.02062339	         49.04862073	         -1.73234264	          3.54666479	         -3.35035112	        -10.17794323	         -8.14603333	          1.80057751	         79.38992925	         17.19765199	          0.90153445	         10.08860933	          0.00051602	
          0.45383934	        -11.99503567	         -3.12475182	          0.06468932	          1.49927187	          0.89841177	         -0.00594840	         45.61149861	          3.44545039	         -4.78946776	        -70.69558090	         11.51238744	          0.81902155	          1.92091721	          5.48352567	          1.60944601	          5.99982716	        -34.59044517	          4.97568903	         -0.11373734	         49.39417833	         -1.72183097	          3.89181350	         -3.53579064	        -10.57730649	         -8.17786836	          1.58352137	         80.56012584	         17.11253831	          0.89524550	         10.29221776	          0.02646314	
          0.45951233	        -12.01751897	         -3.27922088	          0.09091863	          1.51839885	          0.89982992	         -0.00591764	         46.55657950	          3.64620000	         -4.75588554	        -69.21335032	         10.99220315	          0.35912578	          1.77986758	          4.15130241	          1.17215843	          5.75867740	        -33.98153625	          3.51312004	          0.82038189	         49.47782103	         -1.70814752	          4.21037692	         -3.70932623	        -10.92181189	         -8.19829106	          1.39437281	         81.55960390	         17.01112235	          0.88287910	         10.55630249	          0.07407312	
          0.46518532	        -12.03631240	         -3.40974130	          0.11417934	          1.53755700	          0.90108681	         -0.00587685	         47.42483114	          3.83074764	         -4.67545974	        -67.61378606	         10.37158777	         -0.08988508	          1.64770288	          2.91178414	          0.76685375	          5.52524893	        -33.52172043	          2.01544237	          1.78048611	         49.31989739	         -1.69375487	          4.50071135	         -3.86966859	        -11.21079842	         -8.20772681	          1.23287356	         82.38809470	         16.90157732	          0.86662684	         10.87336841	          0.12840524	
          0.47085831	        -12.05152041	         -3.51619613	          0.13667838	          1.55673732	          0.90218107	         -0.00582378	         48.20539030	          3.99987318	         -4.55004412	        -65.88638708	          9.66275393	         -0.52769869	          1.52514987	          1.77393957	          0.39299283	          5.30628022	        -33.21789191	          0.47478632	          2.76312011	         48.93877874	         -1.68036069	          4.76078115	         -4.01542143	        -11.44465681	         -8.20602602	          1.09802576	         83.04418294	         16.79071253	          0.84833868	         11.23425089	          0.17799693	
          0.47653130	        -12.06337482	         -3.59771462	          0.16172853	          1.57593036	          0.90311577	         -0.00575417	         48.88317665	          4.15285181	         -4.38261160	        -64.01357430	          8.87290345	         -0.95474529	          1.41225001	          0.74576702	          0.04904481	          5.10576053	        -33.07168967	         -1.11851350	          3.76933832	         48.35216425	         -1.66991525	          4.98674231	         -4.14526353	        -11.62426066	         -8.19195165	          0.98808719	         83.52569255	         16.68461990	          0.82896618	         11.62957135	          0.21501491	
          0.48220429	        -12.07196110	         -3.65459592	          0.19297526	          1.59512795	          0.90389450	         -0.00566392	         49.44092489	          4.29154103	         -4.17301595	        -61.98103101	          8.01109901	         -1.37097544	          1.30858468	         -0.16148206	         -0.26693347	          4.92954841	        -33.09343948	         -2.76865519	          4.79971276	         47.55924712	         -1.66405763	          5.17611018	         -4.25767743	        -11.75108048	         -8.16428814	          0.90068966	         83.83104234	         16.58848654	          0.80944344	         12.05048933	          0.23421985	
